# xmcd
#
# Track frame offsets:
#	150
#	16039
#	29205
#	46332
#	63162
#	81197
#	98661
#	115640
#	132502
#	149184
#	165328
#	180188
#	193904
#	210819
#	228432
#	246079
#	260893
#	279846
#	297595
#	314664
#
# Disc length: 4418 seconds
#
# Revision: 5
# Processed by: cddbd v1.4PL0 Copyright (c) Steve Scherf et al.
# Submitted via: MusicWizard 6.0.1
#
DISCID=21114014
DTITLE=Various Artist - Bravo Hits 19 [CD 1/2)
DYEAR=1900
DGENRE=Pop
TTITLE0=Sash ! - Stay
TTITLE1=Spice Girls - Spice Up Your Life
TTITLE2=Blümchen - Gib Mir Noch Zeit
TTITLE3=Mr. President - Take Me To The Limit
TTITLE4=All Saint - I Know Where It S At
TTITLE5=Spektacoolär - Meine Kleine Schwester
TTITLE6=Just Friends - What Is Love
TTITLE7=Future Breeze - How Much Can You Take
TTITLE8=Brooklyn Bounce - The Real Bass
TTITLE9=Encode - Le Disc-Jockey
TTITLE10=Gorgous - I'm Gorgeous
TTITLE11=De Bos - On The Run
TTITLE12=Alexia - Uh La La La
TTITLE13=Sqeezer - Tamagotchi
TTITLE14=Hypertrophy - Beautiful Day
TTITLE15=The Sunclub - Fiesta De Los Tamborileros
TTITLE16=Run-Dmc Vs. Jason Nevins - It S Like That
TTITLE17=RLC - Soldiers
TTITLE18=Hanson - Where S The Love
TTITLE19=The Kelly Family - Because It S Love
EXTD=
EXTT0=
EXTT1=
EXTT2=
EXTT3=
EXTT4=
EXTT5=
EXTT6=
EXTT7=
EXTT8=
EXTT9=
EXTT10=
EXTT11=
EXTT12=
EXTT13=
EXTT14=
EXTT15=
EXTT16=
EXTT17=
EXTT18=
EXTT19=
PLAYORDER=
